<?xml version="1.0" encoding="UTF-8" standalone="no"?>
<!-- Created with Inkscape (http://www.inkscape.org/) -->

<svg
   xmlns:dc="http://purl.org/dc/elements/1.1/"
   xmlns:cc="http://creativecommons.org/ns#"
   xmlns:rdf="http://www.w3.org/1999/02/22-rdf-syntax-ns#"
   xmlns:svg="http://www.w3.org/2000/svg"
   xmlns="http://www.w3.org/2000/svg"
   xmlns:sodipodi="http://sodipodi.sourceforge.net/DTD/sodipodi-0.dtd"
   xmlns:inkscape="http://www.inkscape.org/namespaces/inkscape"
   width="521.88739"
   height="162.73448"
   id="svg3059"
   version="1.1"
   inkscape:version="0.48.4 r9939"
   sodipodi:docname="banner2.svg"
   inkscape:export-filename="/home/davideddu/Dropbox/Public/bash-karaoke/karaokivy/themes/Default/images/banner.png"
   inkscape:export-xdpi="90"
   inkscape:export-ydpi="90">
  <defs
     id="defs3061" />
  <sodipodi:namedview
     id="base"
     pagecolor="#ffffff"
     bordercolor="#666666"
     borderopacity="1.0"
     inkscape:pageopacity="0.0"
     inkscape:pageshadow="2"
     inkscape:zoom="0.49497475"
     inkscape:cx="-8.45475"
     inkscape:cy="134.47159"
     inkscape:document-units="px"
     inkscape:current-layer="layer1"
     showgrid="false"
     height="744.09px"
     fit-margin-top="10"
     fit-margin-left="10"
     fit-margin-right="10"
     fit-margin-bottom="10"
     inkscape:window-width="1366"
     inkscape:window-height="717"
     inkscape:window-x="-2"
     inkscape:window-y="-3"
     inkscape:window-maximized="1" />
  <metadata
     id="metadata3064">
    <rdf:RDF>
      <cc:Work
         rdf:about="">
        <dc:format>image/svg+xml</dc:format>
        <dc:type
           rdf:resource="http://purl.org/dc/dcmitype/StillImage" />
        <dc:title></dc:title>
      </cc:Work>
    </rdf:RDF>
  </metadata>
  <g
     inkscape:label="Layer 1"
     inkscape:groupmode="layer"
     id="layer1"
     transform="translate(-36.936533,-791.70774)">
    <g
       transform="translate(41.702337,812.58994)"
       style="font-size:110px;font-style:normal;font-variant:normal;font-weight:normal;font-stretch:normal;line-height:125%;letter-spacing:0px;word-spacing:0px;fill:#ffffff;fill-opacity:1;stroke:none;font-family:Nobile;-inkscape-font-specification:Nobile"
       id="flowRoot3011">
      <path
         d="m 9.86125,12.140044 c 1.686659,8.5e-5 3.373324,0.403418 5.06,1.21 1.686654,0.806749 2.60332,1.796748 2.75,2.97 0.07332,0.586746 0.256653,2.053412 0.55,4.4 0.366652,2.34674 0.879985,5.866737 1.54,10.56 0.733317,4.620061 1.35665,8.76339 1.87,12.43 20.973295,-13.7866 32.853283,-20.349927 35.64,-19.69 1.466612,0.366739 2.456611,1.466738 2.97,3.3 0.58661,1.760068 0.733276,3.593399 0.44,5.5 -0.29339,1.906729 -0.843389,3.300061 -1.65,4.18 -0.660054,0.733392 -6.160049,4.766722 -16.5,12.1 -10.340028,7.333374 -16.170022,11.476703 -17.49,12.43 -2.1e-5,3.5e-5 0.183312,0.110035 0.55,0.33 3.006642,1.980033 6.049972,3.996698 9.13,6.05 3.079966,2.05336 7.553295,5.133357 13.42,9.24 5.93995,4.033349 10.779945,7.590012 14.52,10.67 3.813271,3.006673 5.793269,5.023337 5.94,6.05 0.293268,1.540001 -0.403398,2.823333 -2.09,3.85 -1.686727,1.026665 -3.556726,1.576664 -5.61,1.65 -2.053388,0.07333 -3.813386,-0.110003 -5.28,-0.55 -1.686717,-0.660001 -11.293374,-6.453329 -28.82,-17.38 1.393309,10.633338 2.199975,18.076664 2.42,22.329996 0.07331,1.24666 -0.990024,1.72333 -3.19,1.43 -2.126687,-0.22 -4.510017,-0.77 -7.15,-1.65 -2.640012,-0.80667 -5.096676,-1.87 -7.37,-3.19 -2.2000053,-1.319998 -3.3366708,-2.383331 -3.41,-3.189996 -0.4400036,-3.666663 -1.2833361,-18.113316 -2.53,-43.34 -1.246667,-25.299932 -1.5033334,-38.243252 -0.77,-38.83 -0.1466673,8.2e-5 0.036666,-0.219918 0.55,-0.66 0.5133315,-0.51325 1.2466641,-1.099917 2.2,-1.76 0.439996,-0.293249 1.2099953,-0.439915 2.31,-0.44"
         style="font-weight:500;font-family:OpenComicFont;-inkscape-font-specification:OpenComicFont Medium;fill:#ffffff;fill-opacity:1"
         id="path3020" />
      <path
         d="m 100.55281,12.360044 c 0.80664,-0.07325 2.12664,1.796749 3.96,5.61 1.90663,3.813408 2.9333,6.563406 3.08,8.25 25.00661,48.180022 36.7766,72.856664 35.31,74.029996 -0.88007,0.80667 -2.3834,1.46667 -4.51,1.98 -2.12673,0.58666 -4.36339,0.77 -6.71,0.55 -2.27339,-0.14667 -3.85005,-0.88 -4.73,-2.2 -1.10005,-1.613332 -4.69338,-9.533324 -10.78,-23.759996 -20.973355,6.673347 -31.570011,10.046677 -31.789998,10.12 -2.273344,5.353338 -4.510009,10.12 -6.709999,14.299996 -2.126672,4.25333 -3.410004,6.48999 -3.850001,6.71 -0.953335,0.58666 -2.566667,-0.18334 -4.84,-2.31 -2.346662,-2.05334 -3.703327,-4.14333 -4.07,-6.269996 -0.219994,-1.320001 2.67667,-9.899993 8.69,-25.74 6.013325,-15.839961 10.85332,-28.343282 14.520001,-37.51 3.666645,-9.23993 6.746642,-16.939922 9.24,-23.1 -2.7e-5,0.07342 0.366639,8.4e-5 1.099999,-0.22 0.806639,-0.293249 1.503304,-0.439916 2.089998,-0.44 m -3.079997,0.66 c -2.7e-5,8.4e-5 -0.03669,8.4e-5 -0.11,0 l 0.11,0 m 5.169997,30.25 c -1.32003,3.446717 -3.520026,8.763378 -6.599998,15.95 -3.080022,7.186697 -5.133353,11.990026 -6.16,14.41 l 22.879998,-4.62 c -1.9067,-4.546634 -5.28003,-13.126626 -10.12,-25.74"
         style="font-weight:500;font-family:OpenComicFont;-inkscape-font-specification:OpenComicFont Medium;fill:#ffffff;fill-opacity:1"
         id="path3022" />
      <path
         d="m 170.62625,19.510044 c 3.88663,-0.146589 6.85662,0.550077 8.91,2.09 3.66662,2.786739 5.68328,6.820068 6.05,12.1 0.21995,2.713394 -0.18338,5.390058 -1.21,8.03 -0.95338,2.566719 -2.42005,4.693384 -4.4,6.38 -4.54671,3.373379 -11.07337,7.113375 -19.58,11.22 -3e-5,3.7e-5 -0.14669,0.0367 -0.44,0.11 -0.22003,0.146704 -0.25669,0.256704 -0.11,0.33 l 19.91,31.02 c 0.29329,0.440005 0.84329,1.356671 1.65,2.75 0.87995,1.320002 1.57662,2.456667 2.09,3.41 0.51328,0.953332 0.95328,1.906665 1.32,2.86 0.51328,0.806666 0.47662,1.466666 -0.11,1.979996 -0.80672,0.51333 -2.09005,0.77 -3.85,0.77 -3.88671,-0.22 -7.18671,-0.88 -9.9,-1.98 -1.32003,-0.44 -2.4567,-1.429998 -3.41,-2.969996 -2.86003,-4.47333 -6.05003,-9.863324 -9.57,-16.17 -3.44669,-6.379978 -6.45335,-11.916639 -9.02,-16.61 -0.0734,-0.0733 -0.14668,-0.183301 -0.22,-0.33 -1e-5,-0.219968 -0.0367,-0.329967 -0.11,-0.33 -0.14668,2.493363 -0.58668,12.063354 -1.32,28.71 0.0733,1.760002 -0.33001,3.446667 -1.21,5.06 -0.88001,1.613331 -2.12668,2.786666 -3.74,3.519996 -0.51334,0.36667 -1.17334,0.51333 -1.98,0.44 -0.80667,-0.0733 -1.39334,-0.40333 -1.76,-0.99 -1.02667,-3.299997 -1.79667,-7.699992 -2.31,-13.199996 -0.44,-4.326653 -0.69667,-8.763316 -0.77,-13.31 -0.0733,-4.619973 0,-9.349968 0.22,-14.19 0.29333,-4.839959 0.58666,-9.166621 0.88,-12.98 0.29333,-3.886613 0.66,-8.506609 1.1,-13.86 0.0733,-0.439936 0.14666,-1.283269 0.22,-2.53 0.0733,-1.2466 0.22,-2.199932 0.44,-2.86 1.02666,-2.126596 3.40999,-4.069927 7.15,-5.83 0.58666,0.513407 1.09999,1.063407 1.54,1.65 10.04664,-2.639924 17.8933,-4.069923 23.54,-4.29 m -4.18,10.01 c -1.76003,0.0734 -3.52003,0.366734 -5.28,0.88 -1.76002,0.440066 -3.81336,1.100065 -6.16,1.98 -2.27335,0.880063 -3.92335,1.46673 -4.95,1.76 -0.0734,4.620058 -0.40335,11.843384 -0.99,21.67 1.75998,-1.173291 3.88665,-2.566623 6.38,-4.18 0.51331,-0.366621 1.50331,-0.989954 2.97,-1.87 1.53997,-0.879952 2.67664,-1.613285 3.41,-2.2 3.88664,-3.593281 6.70997,-7.07661 8.47,-10.45 1.1733,-2.346605 1.46663,-4.14327 0.88,-5.39 -0.73337,-1.319934 -2.31003,-2.053266 -4.73,-2.2"
         style="font-weight:500;font-family:OpenComicFont;-inkscape-font-specification:OpenComicFont Medium;fill:#ffffff;fill-opacity:1"
         id="path3024" />
      <path
         d="m 217.42781,12.360044 c 0.80664,-0.07325 2.12664,1.796749 3.96,5.61 1.90663,3.813408 2.9333,6.563406 3.08,8.25 25.00661,48.180022 36.7766,72.856664 35.31,74.029996 -0.88007,0.80667 -2.3834,1.46667 -4.51,1.98 -2.12673,0.58666 -4.36339,0.77 -6.71,0.55 -2.27339,-0.14667 -3.85005,-0.88 -4.73,-2.2 -1.10005,-1.613332 -4.69338,-9.533324 -10.78,-23.759996 -20.97336,6.673347 -31.57001,10.046677 -31.79,10.12 -2.27334,5.353338 -4.51001,10.12 -6.71,14.299996 -2.12667,4.25333 -3.41,6.48999 -3.85,6.71 -0.95333,0.58666 -2.56666,-0.18334 -4.84,-2.31 -2.34666,-2.05334 -3.70333,-4.14333 -4.07,-6.269996 -0.21999,-1.320001 2.67667,-9.899993 8.69,-25.74 6.01333,-15.839961 10.85332,-28.343282 14.52,-37.51 3.66665,-9.23993 6.74664,-16.939922 9.24,-23.1 -2e-5,0.07342 0.36664,8.4e-5 1.1,-0.22 0.80664,-0.293249 1.50331,-0.439916 2.09,-0.44 m -3.08,0.66 c -2e-5,8.4e-5 -0.0367,8.4e-5 -0.11,0 l 0.11,0 m 5.17,30.25 c -1.32003,3.446717 -3.52003,8.763378 -6.6,15.95 -3.08002,7.186697 -5.13335,11.990026 -6.16,14.41 l 22.88,-4.62 c -1.9067,-4.546634 -5.28003,-13.126626 -10.12,-25.74"
         style="font-weight:500;font-family:OpenComicFont;-inkscape-font-specification:OpenComicFont Medium;fill:#ffffff;fill-opacity:1"
         id="path3026" />
      <path
         d="m 280.90125,20.720044 c 5.64663,7.6e-5 11.21996,1.943407 16.72,5.83 5.57328,3.886733 10.00994,8.946728 13.31,15.18 1.17327,2.860052 1.75994,6.966715 1.76,12.32 -6e-5,5.353371 -0.47673,10.816699 -1.43,16.39 -0.88006,5.573354 -2.34672,10.816682 -4.4,15.73 -2.05339,4.913339 -4.40005,8.286669 -7.04,10.12 -2.34671,1.613332 -4.95004,2.969997 -7.81,4.069996 -2.7867,1.1 -5.90337,1.83333 -9.35,2.2 -3.37336,0.36666 -6.67336,0.22 -9.9,-0.44 -3.15335,-0.66 -6.30668,-2.126666 -9.46,-4.399996 -3.08001,-2.273332 -5.75667,-5.279996 -8.03,-9.02 -1.1,-1.97999 -1.94334,-5.206653 -2.53,-9.68 -0.51333,-4.546644 -0.66,-9.569973 -0.44,-15.07 0.22,-5.573295 1.21,-11.439956 2.97,-17.6 1.83333,-6.159943 4.36333,-11.439938 7.59,-15.84 4.76665,-6.526594 10.77998,-9.789924 18.04,-9.79 m 1.87,15.29 c -4.18003,6.1e-5 -7.62669,2.126725 -10.34,6.38 -2.42002,3.740051 -4.10668,8.433379 -5.06,14.08 -0.95335,5.646701 -1.32001,10.633363 -1.1,14.96 0.29332,4.326688 0.91665,7.370018 1.87,9.13 1.53998,3.080013 3.48331,5.390011 5.83,6.93 2.34664,1.540008 4.69331,2.310007 7.04,2.31 2.41997,7e-6 4.6933,-0.366659 6.82,-1.1 2.19996,-0.733325 4.14329,-1.796657 5.83,-3.19 1.53996,-1.173321 2.89662,-3.373319 4.07,-6.6 1.17329,-3.226646 2.01662,-6.673309 2.53,-10.34 0.58662,-3.666635 0.87995,-7.259965 0.88,-10.78 -5e-5,-3.519958 -0.33005,-6.196622 -0.99,-8.03 -1.90671,-4.106616 -4.47338,-7.406612 -7.7,-9.9 -3.15337,-2.566607 -6.38003,-3.849939 -9.68,-3.85"
         style="font-weight:500;font-family:OpenComicFont;-inkscape-font-specification:OpenComicFont Medium;fill:#ffffff;fill-opacity:1"
         id="path3028" />
      <path
         d="m 319.45109,12.140044 c 1.68666,8.5e-5 3.37333,0.403418 5.06,1.21 1.68666,0.806749 2.60332,1.796748 2.75,2.97 0.0733,0.586746 0.25666,2.053412 0.55,4.4 0.36666,2.34674 0.87999,5.866737 1.54,10.56 0.73332,4.620061 1.35665,8.76339 1.87,12.43 20.9733,-13.7866 32.85329,-20.349927 35.64,-19.69 1.46662,0.366739 2.45661,1.466738 2.97,3.3 0.58661,1.760068 0.73328,3.593399 0.44,5.5 -0.29339,1.906729 -0.84339,3.300061 -1.65,4.18 -0.66005,0.733392 -6.16005,4.766722 -16.5,12.1 -10.34002,7.333374 -16.17002,11.476703 -17.49,12.43 -2e-5,3.5e-5 0.18332,0.110035 0.55,0.33 3.00665,1.980033 6.04998,3.996698 9.13,6.05 3.07997,2.05336 7.5533,5.133357 13.42,9.24 5.93995,4.033349 10.77995,7.590012 14.52,10.67 3.81327,3.006673 5.79327,5.023337 5.94,6.05 0.29327,1.540001 -0.40339,2.823333 -2.09,3.85 -1.68672,1.026665 -3.55672,1.576664 -5.61,1.65 -2.05338,0.07333 -3.81338,-0.110003 -5.28,-0.55 -1.68671,-0.660001 -11.29337,-6.453329 -28.82,-17.38 1.39331,10.633338 2.19998,18.076664 2.42,22.329996 0.0733,1.24666 -0.99002,1.72333 -3.19,1.43 -2.12668,-0.22 -4.51001,-0.77 -7.15,-1.65 -2.64001,-0.80667 -5.09667,-1.87 -7.37,-3.19 -2.2,-1.319998 -3.33667,-2.383331 -3.41,-3.189996 -0.44,-3.666663 -1.28333,-18.113316 -2.53,-43.34 -1.24666,-25.299932 -1.50333,-38.243252 -0.77,-38.83 -0.14666,8.2e-5 0.0367,-0.219918 0.55,-0.66 0.51334,-0.51325 1.24667,-1.099917 2.2,-1.76 0.44,-0.293249 1.21,-0.439915 2.31,-0.44"
         style="font-weight:500;font-family:OpenComicFont;-inkscape-font-specification:OpenComicFont Medium;fill:#ffffff;fill-opacity:1"
         id="path3030" />
      <path
         d="m 390.23266,21.270044 c 0.95332,1.026741 2.93332,13.566729 5.94,37.62 3.07998,23.980014 4.32664,36.740001 3.74,38.28 -0.73336,1.759998 -3.19002,3.923326 -7.37,6.489996 -4.10668,2.56666 -6.67334,3.33666 -7.7,2.31 -0.95334,-0.95334 -1.79667,-14.629991 -2.53,-41.029996 -0.66001,-26.399942 -0.84334,-40.296595 -0.55,-41.69 0.43999,-2.053258 1.53999,-3.189923 3.3,-3.41 1.83332,-0.219923 3.55665,0.256743 5.17,1.43"
         style="font-weight:500;font-family:OpenComicFont;-inkscape-font-specification:OpenComicFont Medium;fill:#ffffff;fill-opacity:1"
         id="path3032" />
      <path
         d="m 402.04734,28.310044 c 0.14667,-1.75993 0.80667,-2.823262 1.98,-3.19 1.17333,-0.439928 2.45667,-0.293261 3.85,0.44 1.39333,0.660071 2.71333,1.576736 3.96,2.75 1.31999,1.100067 2.23666,2.1634 2.75,3.19 0.14666,0.146732 2.71332,7.590058 7.7,22.33 4.98664,14.740028 7.99331,22.366687 9.02,22.88 0.80664,0.44002 2.23664,-2.456644 4.29,-8.69 2.0533,-6.306632 4.21663,-13.639958 6.49,-22 2.34663,-8.433274 3.59329,-12.869936 3.74,-13.31 0.51329,-1.686601 1.75996,-2.933266 3.74,-3.74 1.97995,-0.879931 3.99662,-1.173264 6.05,-0.88 2.05328,0.220068 3.51995,0.880068 4.4,1.98 0.87994,1.026732 -0.95339,7.443393 -5.5,19.25 -4.47338,11.806702 -9.38671,23.393357 -14.74,34.76 -5.28003,11.366668 -8.47003,17.086666 -9.57,17.159996 -1.10002,0.0733 -3.96002,-5.683328 -8.58,-17.269996 -4.54668,-11.659976 -8.87334,-23.429964 -12.98,-35.31 -4.10667,-11.87994 -6.30666,-18.663267 -6.6,-20.35"
         style="font-weight:500;font-family:OpenComicFont;-inkscape-font-specification:OpenComicFont Medium;fill:#ffffff;fill-opacity:1"
         id="path3034" />
      <path
         d="m 464.54453,24.350044 c 1.02666,-2.273259 2.05333,-3.593257 3.08,-3.96 1.02666,-0.36659 2.67666,7.6e-5 4.95,1.1 1.75999,3.666738 3.59332,8.8734 5.5,15.62 1.90665,6.673386 3.48331,11.550048 4.73,14.63 1.02664,-2.199953 2.27331,-5.536616 3.74,-10.01 1.46664,-4.546607 3.00664,-8.469937 4.62,-11.77 1.6133,-3.29993 3.66663,-6.086594 6.16,-8.36 2.19996,0.586741 5.97662,3.080072 11.33,7.48 -3.22671,8.14006 -8.50671,19.396715 -15.84,33.77 -7.26002,14.373353 -12.24669,24.640009 -14.96,30.8 -0.14668,0.366669 -0.69668,1.576668 -1.65,3.63 -0.95335,2.126664 -1.72335,3.739996 -2.31,4.839996 -0.58668,1.17333 -1.54001,1.94333 -2.86,2.31 -3.59334,1.17333 -6.19667,1.46666 -7.81,0.88 -0.95333,-0.29334 -1.68667,-0.91667 -2.2,-1.87 -0.44,-0.95334 -0.55,-1.90667 -0.33,-2.86 1.61333,-4.546662 3.59333,-9.89999 5.94,-16.059996 2.41999,-6.159982 4.65666,-11.439976 6.71,-15.84 -0.58668,-2.126636 -1.46668,-5.499966 -2.64,-10.12 -1.10001,-4.69329 -2.12667,-8.763286 -3.08,-12.21 -0.88001,-3.446613 -1.79667,-6.819943 -2.75,-10.12 -1.90667,-4.179935 -2.01667,-8.139931 -0.33,-11.88"
         style="font-weight:500;font-family:OpenComicFont;-inkscape-font-specification:OpenComicFont Medium;fill:#ffffff;fill-opacity:1"
         id="path3036" />
    </g>
  </g>
</svg>
