<?xml version="1.0" encoding="UTF-8" standalone="no"?>
<!-- Created with Inkscape (http://www.inkscape.org/) -->

<svg
   xmlns:dc="http://purl.org/dc/elements/1.1/"
   xmlns:cc="http://creativecommons.org/ns#"
   xmlns:rdf="http://www.w3.org/1999/02/22-rdf-syntax-ns#"
   xmlns:svg="http://www.w3.org/2000/svg"
   xmlns="http://www.w3.org/2000/svg"
   xmlns:sodipodi="http://sodipodi.sourceforge.net/DTD/sodipodi-0.dtd"
   xmlns:inkscape="http://www.inkscape.org/namespaces/inkscape"
   width="521.88739"
   height="162.73448"
   id="svg3059"
   version="1.1"
   inkscape:version="0.48.4 r9939"
   sodipodi:docname="banner.svg"
   inkscape:export-filename="/home/davideddu/Dropbox/Public/bash-karaoke/karaokivy/images/banner.png"
   inkscape:export-xdpi="90"
   inkscape:export-ydpi="90">
  <defs
     id="defs3061" />
  <sodipodi:namedview
     id="base"
     pagecolor="#ffffff"
     bordercolor="#666666"
     borderopacity="1.0"
     inkscape:pageopacity="0.0"
     inkscape:pageshadow="2"
     inkscape:zoom="0.49497475"
     inkscape:cx="321.86513"
     inkscape:cy="153.66449"
     inkscape:document-units="px"
     inkscape:current-layer="layer1"
     showgrid="false"
     height="744.09px"
     fit-margin-top="10"
     fit-margin-left="10"
     fit-margin-right="10"
     fit-margin-bottom="10"
     inkscape:window-width="1366"
     inkscape:window-height="717"
     inkscape:window-x="-2"
     inkscape:window-y="-3"
     inkscape:window-maximized="1" />
  <metadata
     id="metadata3064">
    <rdf:RDF>
      <cc:Work
         rdf:about="">
        <dc:format>image/svg+xml</dc:format>
        <dc:type
           rdf:resource="http://purl.org/dc/dcmitype/StillImage" />
        <dc:title></dc:title>
      </cc:Work>
    </rdf:RDF>
  </metadata>
  <g
     inkscape:label="Layer 1"
     inkscape:groupmode="layer"
     id="layer1"
     transform="translate(-36.936533,-791.70774)">
    <g
       transform="matrix(0.91523969,0,0,0.91523969,-74.439983,719.77594)"
       style="font-size:40px;font-style:normal;font-variant:normal;font-weight:normal;font-stretch:normal;line-height:125%;letter-spacing:0px;word-spacing:0px;fill:#ffffff;fill-opacity:1;stroke:none;font-family:Nobile;-inkscape-font-specification:Nobile"
       id="flowRoot3067">
      <path
         d="m 196.39062,89.519506 -2.46093,1.96875 -3.375,5.34375 0.98437,3.867184 -9.28125,11.67188 5.34375,-3.86719 -11.67187,17.01563 2.46093,0.98437 9.21094,-11.17969 -3.375,6.32813 -3.86719,3.375 -1.96875,3.9375 -3.9375,1.40625 -2.39062,4.42969 0.98437,1.40625 -1.96875,3.44531 2.46094,0.98437 -1.96875,1.47657 4.85156,11.17968 -0.98437,1.40625 0.49219,3.9375 -2.39063,-0.98437 1.40625,1.47656 0.98438,0 2.46093,3.86719 -0.49218,0.98437 0.98437,2.46094 -0.98437,0.42188 1.96875,4.42968 -1.96875,0.49219 -2.95313,-1.96875 0.98438,1.96875 3.9375,1.89844 5.34375,25.3125 -1.47657,1.96875 2.46094,3.375 0.49219,-2.39063 0.42187,2.88282 2.95313,6.32812 -2.95313,1.47656 0.49219,3.86719 -2.39062,0.98438 -4.85157,-8.71875 0.42188,-4.42969 c -1.73442,-1.03123 -2.85942,-2.64842 -3.375,-4.85156 l -5.34375,-14.55469 -3.9375,-3.44531 -8.22656,-31.14844 -3.44532,3.44531 -7.3125,19.89844 -2.39062,22.92187 0,6.32813 -2.95313,1.40625 -0.49218,-2.39063 -0.98438,0.98438 0.98438,1.40625 -1.40625,-1.40625 -0.98438,1.40625 1.40625,2.95312 3.9375,3.375 -3.44531,-0.91406 -0.49219,2.39063 -4.85156,-1.47657 -1.47656,-2.39062 2.95312,-2.95313 -2.95312,-7.3125 -0.91407,-5.83593 0.91407,-1.40625 -1.40625,-9.28125 0,-7.80469 -0.98438,-0.91406 -0.98437,-5.90625 1.96875,-3.375 -1.47657,-4.35938 1.47657,-3.44531 -0.98438,-0.98438 0.49219,-26.22656 3.375,-15.60937 3.44531,1.47656 2.88281,-1.96875 c 0.0937,-1.87489 0.91405,-3.49208 2.46094,-4.85156 l -0.49219,5.34375 2.88282,4.42968 -1.40625,4.35938 0.98437,4.85156 -1.96875,19.47656 0.98438,0.98438 9.21093,-16.10156 1.96875,-4.85157 15.60938,-22.85156 3.86719,-1.96875 -2.46094,1.96875 1.47656,1.47656 6.82031,-3.9375 9.70313,-11.179684 2.95312,0 M 179.375,99.222631 c -0.14067,0.421995 -0.4688,0.75012 -0.98438,0.984379 l 0.98438,-0.984379 m -5.34375,6.328129 -4.42969,4.92187 -0.98437,4.85156 7.3125,-8.29687 -1.89844,-1.47656 m 14.55469,1.96875 c 0.56244,0.28136 0.89056,0.77355 0.98437,1.47656 l -0.98437,-1.47656 m -7.80469,4.85156 -1.40625,1.96875 2.88281,-0.98438 c -0.2813,-0.46864 -0.77349,-0.79676 -1.47656,-0.98437 m 8.78906,0.98437 0.49219,1.96875 -0.98438,-0.49218 0.49219,-1.47657 m -10.6875,1.47657 c 0.32808,0.51573 0.82026,0.84385 1.47656,0.98437 l -1.47656,-0.98437 m -0.98437,0.98437 -0.49219,1.89844 1.47656,-0.91406 c -0.14067,-0.32803 -0.4688,-0.65615 -0.98437,-0.98438 m -2.46094,11.17969 0.98437,0 -0.49218,-0.98438 -0.49219,0.98438 m -0.98438,0.49219 -2.39062,1.47656 2.88281,0.49219 -0.49219,-1.96875 m -4.35937,9.70312 0,0.98438 0.98437,-0.49219 -0.98437,-0.49219 m -0.49219,5.34375 1.47656,2.46094 c -0.28129,-0.74993 -0.77347,-1.57024 -1.47656,-2.46094 m 0.98438,4.42969 2.46093,6.32812 c -0.0938,-2.15618 -0.9141,-4.26555 -2.46093,-6.32812 m -1.47657,4.35937 1.47657,2.46094 c -0.23442,-0.93743 -0.72661,-1.75774 -1.47657,-2.46094 m 3.9375,2.46094 c 0.37496,0.65632 1.00777,1.12507 1.89844,1.40625 l -1.89844,-1.40625 m -2.46093,3.375 1.47656,0.49219 -0.49219,-1.47656 -0.98437,0.98437 m 5.34375,2.95313 -1.47657,0.91406 c 0.65621,-0.0937 1.1484,-0.39838 1.47657,-0.91406 m -0.98438,2.39062 c 0.28121,0.46881 0.77339,0.79693 1.47656,0.98438 l -1.47656,-0.98438 m -29.67187,3.9375 0.98437,0.91406 0.49219,-1.89843 -0.98438,0 -0.49218,0.98437 m 22.42968,6.75 0.91407,0.49219 -0.49219,-1.40625 -0.42188,0.91406 m 1.40625,5.90625 1.47657,0.91406 c -0.28129,-0.46871 -0.77348,-0.77339 -1.47657,-0.91406 m 0.49219,0.91406 0.98438,0.98438 c -0.14067,-0.32809 -0.46879,-0.65621 -0.98438,-0.98438 m 14.625,17.08594 0.98438,0.91406 c -0.0938,-0.37497 -0.42193,-0.67966 -0.98438,-0.91406 m -42.82031,1.89844 c 0.0469,1.07814 0.51561,1.89845 1.40625,2.46094 l -1.40625,-2.46094 m -1.96875,2.46094 0.98437,2.88281 0,-2.39063 -0.98437,-0.49218 m -0.49219,11.17968 c 0.70312,0.32814 1.35937,0.98438 1.96875,1.96875 l -1.96875,-1.96875 m 2.95313,0 0.91406,1.47657 c -0.42189,-0.28125 -0.72658,-0.77344 -0.91406,-1.47657 m 2.88281,4.85157 -1.47656,1.96875 0.49218,-2.95313 0.98438,0.98438"
         style="font-size:144px;fill:#ffffff;font-family:'A Sick Font www.kornnet.too.it';-inkscape-font-specification:'A Sick Font www.kornnet.too.it'"
         id="path3844"
         inkscape:connector-curvature="0" />
      <path
         d="m 240.19531,141.26951 3.65625,2.60156 0.98438,6.11719 3.09375,4.64062 2.03906,12.86719 -0.98438,1.05469 -0.5625,2.53125 1.05469,1.05468 2.60156,0 -4.14843,10.26563 2.03906,0.5625 3.09375,-1.05469 2.10937,-3.09375 0.98438,1.54688 -4.64063,5.625 2.10938,12.86718 -1.05469,1.05469 2.03906,2.03906 0.5625,3.58594 1.47657,1.54688 -1.47657,-0.98438 1.47657,2.03906 -1.47657,2.03907 2.03907,-0.49219 0,1.05469 2.53125,0.98437 -1.54688,2.60156 2.60156,5.13282 -2.60156,-1.54688 -1.54687,-4.07812 -4.07813,-1.54688 1.54688,-2.60156 -4.64063,-7.73438 -4.64062,-2.03906 -3.58594,1.54688 -1.05469,-1.05469 -7.66406,5.13281 0.49219,2.60156 -13.92188,-3.09375 -2.53125,-3.58593 -1.05469,1.05468 -0.49218,-1.05468 -3.09375,3.09375 -3.58594,1.54687 1.54687,-3.09375 -2.03906,1.05469 1.47656,-5.20313 -3.02343,-1.54687 0.49218,-2.53125 -2.60156,-3.09375 1.05469,-4.14844 1.54687,0.5625 -1.05468,1.54688 1.54687,-1.54688 -1.54687,-2.60156 -2.03907,1.54687 2.03907,-5.13281 2.10937,-11.8125 8.71875,-7.24219 2.53125,-4.07812 -4.07812,0 1.54687,-1.54688 11.32031,-4.64062 4.07813,1.05469 1.54687,-2.10938 -3.09375,0 4.64063,-1.54687 2.60156,-3.58594 2.53125,-5.13281 m -21.09375,16.94531 3.09375,-0.98438 -2.03906,0 -1.05469,0.98438 m 8.78906,0.5625 -2.60156,0.98437 -0.49219,1.54688 1.54688,0 c 1.03122,-0.56244 1.54685,-1.40619 1.54687,-2.53125 m 6.1875,0.98437 -9.28125,4.14844 -6.1875,6.1875 -3.58593,9.21094 -0.49219,4.64062 9.77344,15.96094 5.625,-1.54687 -1.54688,1.54687 4.64063,2.03906 4.64062,-5.13281 0.98438,-2.53125 -0.49219,-1.05469 -2.03906,2.53125 -1.54688,-0.98437 -0.49219,-1.54688 7.17188,-3.09375 1.05469,-5.13281 -3.65625,-18.5625 c -1.17191,-2.24994 -2.69535,-4.4765 -4.57032,-6.67969 m 12.30469,4.64063 1.05469,0 -0.5625,-0.98438 -0.49219,0.98438 m -31.85156,5.13281 -3.09375,5.20313 -1.05469,3.58593 1.54688,0.98438 2.03906,-4.57031 0.5625,-5.20313 m 40.07812,2.60156 5.13282,1.05469 1.05468,1.54688 -3.09375,3.58593 -1.05468,-0.5625 1.05468,-1.54687 -3.09375,-4.07813 m -5.625,3.09375 0.98438,0.98438 c -0.0938,-0.32808 -0.42192,-0.65621 -0.98438,-0.98438 m -42.67968,10.75782 0.98437,0 -0.49219,-0.98438 -0.49218,0.98438 m 8.71875,3.09375 -1.54688,1.05468 3.09375,6.1875 0.49219,-3.58593 c -0.89064,-0.93748 -1.57033,-2.15622 -2.03906,-3.65625 m -2.03907,4.14843 c 0.56249,1.07815 1.40624,1.9219 2.53125,2.53125 l -2.53125,-2.53125 m 29.8125,0 c 0.0937,0.56253 0.44528,1.07815 1.05469,1.54688 l -1.05469,-1.54688 m 2.03907,0.49219 c 0.0937,0.65628 0.44527,1.1719 1.05468,1.54688 l -1.05468,-1.54688 m -16.45313,0 3.09375,2.03906 -5.13281,0 c 0.84372,-0.37497 1.52341,-1.05466 2.03906,-2.03906 m 9.77344,2.60156 c 0.32809,0.46878 0.84371,0.7969 1.54687,0.98438 l -1.54687,-0.98438 m 3.09375,0 -1.54688,3.58594 4.14844,0 c -0.65629,-1.31248 -1.52348,-2.50779 -2.60156,-3.58594 m -27.77344,2.03907 c 0.51561,0.60939 1.1953,0.96095 2.03906,1.05468 l -2.03906,-1.05468 m 6.1875,2.60156 -2.03906,0.98437 2.03906,1.05469 0.98438,-0.49219 c -0.0938,-0.7031 -0.4219,-1.21873 -0.98438,-1.54687 m 15.39844,5.13281 3.09375,2.03906 -4.64063,0 1.54688,-2.03906 m 18,0.49219 1.05469,1.05469 c -0.14068,-0.37499 -0.49224,-0.72655 -1.05469,-1.05469"
         style="font-size:144px;fill:#ffffff;font-family:'A Sick Font www.kornnet.too.it';-inkscape-font-specification:'A Sick Font www.kornnet.too.it'"
         id="path3846"
         inkscape:connector-curvature="0" />
      <path
         d="m 316.90625,142.25388 11.10937,2.25 7.45313,3.65625 -19.33594,8.22656 -8.15625,6.67969 -5.20312,6.67969 -4.42969,8.85937 -0.77344,8.92969 1.47656,8.92969 -1.47656,1.47656 1.47656,2.17969 -1.47656,5.20312 7.45313,13.35938 -4.42969,0.77344 -4.5,-6.67969 -11.10938,2.95312 0.70313,-3.72656 -1.47656,-0.70312 -0.70313,-4.42969 1.47656,-1.54688 -2.25,-10.33593 0,-11.17969 -2.95312,0.77344 2.17969,-4.5 -2.17969,-2.17969 -2.95313,-7.45313 3.65625,-3.72656 -5.90625,-0.70312 2.25,-3.72657 -5.97656,-8.15625 4.42969,-1.47656 5.20312,4.42969 0.77344,-2.25 -2.25,-0.70313 c 0.42186,-3.32805 2.15624,-6.0468 5.20313,-8.15625 l 7.45312,12.58594 7.38281,-6.67969 9.70313,-4.42968 8.15625,-5.20313 m -0.77344,2.25 -3.65625,2.95313 5.90625,-0.77344 -2.25,-2.17969 m 1.47656,3.65625 -8.85937,3.02344 -3.02344,2.17969 3.72656,0.77343 6.67969,-4.42968 5.20313,0 -3.72657,-1.54688 m -36.35156,3.02344 2.25,1.47656 c -0.42189,-0.74993 -1.17189,-1.24212 -2.25,-1.47656 m 17.78906,4.42969 -6.67968,8.92968 -1.47657,7.38282 1.47657,4.5 4.5,-11.17969 c 0.98434,-2.95307 1.7109,-6.164 2.17968,-9.63281"
         style="font-size:144px;fill:#ffffff;font-family:'A Sick Font www.kornnet.too.it';-inkscape-font-specification:'A Sick Font www.kornnet.too.it'"
         id="path3848"
         inkscape:connector-curvature="0" />
      <path
         d="m 383.63281,141.26951 3.65625,2.60156 0.98438,6.11719 3.09375,4.64062 2.03906,12.86719 -0.98438,1.05469 -0.5625,2.53125 1.05469,1.05468 2.60156,0 -4.14843,10.26563 2.03906,0.5625 3.09375,-1.05469 2.10937,-3.09375 0.98438,1.54688 -4.64063,5.625 2.10938,12.86718 -1.05469,1.05469 2.03906,2.03906 0.5625,3.58594 1.47657,1.54688 -1.47657,-0.98438 1.47657,2.03906 -1.47657,2.03907 2.03907,-0.49219 0,1.05469 2.53125,0.98437 -1.54688,2.60156 2.60156,5.13282 -2.60156,-1.54688 -1.54687,-4.07812 -4.07813,-1.54688 1.54688,-2.60156 -4.64063,-7.73438 -4.64062,-2.03906 -3.58594,1.54688 -1.05469,-1.05469 -7.66406,5.13281 0.49219,2.60156 -13.92188,-3.09375 -2.53125,-3.58593 -1.05469,1.05468 -0.49218,-1.05468 -3.09375,3.09375 -3.58594,1.54687 1.54687,-3.09375 -2.03906,1.05469 1.47656,-5.20313 -3.02343,-1.54687 0.49218,-2.53125 -2.60156,-3.09375 1.05469,-4.14844 1.54687,0.5625 -1.05468,1.54688 1.54687,-1.54688 -1.54687,-2.60156 -2.03907,1.54687 2.03907,-5.13281 2.10937,-11.8125 8.71875,-7.24219 2.53125,-4.07812 -4.07812,0 1.54687,-1.54688 11.32031,-4.64062 4.07813,1.05469 1.54687,-2.10938 -3.09375,0 4.64063,-1.54687 2.60156,-3.58594 2.53125,-5.13281 m -21.09375,16.94531 3.09375,-0.98438 -2.03906,0 -1.05469,0.98438 m 8.78906,0.5625 -2.60156,0.98437 -0.49219,1.54688 1.54688,0 c 1.03122,-0.56244 1.54685,-1.40619 1.54687,-2.53125 m 6.1875,0.98437 -9.28125,4.14844 -6.1875,6.1875 -3.58593,9.21094 -0.49219,4.64062 9.77344,15.96094 5.625,-1.54687 -1.54688,1.54687 4.64063,2.03906 4.64062,-5.13281 0.98438,-2.53125 -0.49219,-1.05469 -2.03906,2.53125 -1.54688,-0.98437 -0.49219,-1.54688 7.17188,-3.09375 1.05469,-5.13281 -3.65625,-18.5625 c -1.17191,-2.24994 -2.69535,-4.4765 -4.57032,-6.67969 m 12.30469,4.64063 1.05469,0 -0.5625,-0.98438 -0.49219,0.98438 m -31.85156,5.13281 -3.09375,5.20313 -1.05469,3.58593 1.54688,0.98438 2.03906,-4.57031 0.5625,-5.20313 m 40.07812,2.60156 5.13282,1.05469 1.05468,1.54688 -3.09375,3.58593 -1.05468,-0.5625 1.05468,-1.54687 -3.09375,-4.07813 m -5.625,3.09375 0.98438,0.98438 c -0.0938,-0.32808 -0.42192,-0.65621 -0.98438,-0.98438 m -42.67968,10.75782 0.98437,0 -0.49219,-0.98438 -0.49218,0.98438 m 8.71875,3.09375 -1.54688,1.05468 3.09375,6.1875 0.49219,-3.58593 c -0.89064,-0.93748 -1.57033,-2.15622 -2.03906,-3.65625 m -2.03907,4.14843 c 0.56249,1.07815 1.40624,1.9219 2.53125,2.53125 l -2.53125,-2.53125 m 29.8125,0 c 0.0937,0.56253 0.44528,1.07815 1.05469,1.54688 l -1.05469,-1.54688 m 2.03907,0.49219 c 0.0937,0.65628 0.44527,1.1719 1.05468,1.54688 l -1.05468,-1.54688 m -16.45313,0 3.09375,2.03906 -5.13281,0 c 0.84372,-0.37497 1.52341,-1.05466 2.03906,-2.03906 m 9.77344,2.60156 c 0.32809,0.46878 0.84371,0.7969 1.54687,0.98438 l -1.54687,-0.98438 m 3.09375,0 -1.54688,3.58594 4.14844,0 c -0.65629,-1.31248 -1.52348,-2.50779 -2.60156,-3.58594 m -27.77344,2.03907 c 0.51561,0.60939 1.1953,0.96095 2.03906,1.05468 l -2.03906,-1.05468 m 6.1875,2.60156 -2.03906,0.98437 2.03906,1.05469 0.98438,-0.49219 c -0.0938,-0.7031 -0.4219,-1.21873 -0.98438,-1.54687 m 15.39844,5.13281 3.09375,2.03906 -4.64063,0 1.54688,-2.03906 m 18,0.49219 1.05469,1.05469 c -0.14068,-0.37499 -0.49224,-0.72655 -1.05469,-1.05469"
         style="font-size:144px;fill:#ffffff;font-family:'A Sick Font www.kornnet.too.it';-inkscape-font-specification:'A Sick Font www.kornnet.too.it'"
         id="path3850"
         inkscape:connector-curvature="0" />
      <path
         d="m 444.66406,142.67576 9.49219,7.3125 c 2.76558,2.01569 4.94526,4.94537 6.53906,8.78906 l 1.47656,13.85156 -0.70312,12.44531 -3.65625,13.92188 c -0.70317,3.84377 -2.41411,7.73439 -5.13281,11.67187 l -10.19532,5.83594 -8.78906,2.95313 2.17969,-2.17969 -8.01563,-4.42969 13.85157,-4.35937 3.65625,-7.3125 5.83593,-26.29688 0,-8.08594 -1.40625,-5.13281 c -2.34378,-3.04681 -5.50784,-5.2265 -9.49218,-6.53906 l -7.3125,9.49219 c -0.37502,2.5313 -1.85159,4.24223 -4.42969,5.13281 l 2.25,-5.13281 -6.60938,7.3125 -2.88281,11.67187 -4.42969,10.26563 1.47657,2.95312 -1.47657,8.01563 c 1.35937,3.84376 3.79687,7.26563 7.3125,10.26562 l -5.13281,-2.25 -5.0625,-5.0625 2.17969,-1.47656 -3.65625,-9.49219 2.95312,-19.75781 -1.47656,-1.47656 11.67188,-19.75782 18.98437,-13.14843 m 0,7.3125 2.88281,2.95312 c -0.56253,-1.07806 -1.52347,-2.06243 -2.88281,-2.95312 m -16.10156,21.9375 c -0.0469,2.06254 -0.51564,4.00785 -1.40625,5.83593 l 1.40625,-5.83593 m -8.71875,8.01562 1.47656,0 -0.77344,-1.40625 -0.70312,1.40625 m 6.53906,-0.70312 2.17969,1.47656 c -0.98439,-0.0468 -1.71095,-0.53902 -2.17969,-1.47656 m 1.47656,2.95312 -2.17968,3.65625 -1.47657,-3.65625 3.65625,0 m 19.6875,15.32813 1.47657,-0.70313 -0.70313,-0.77344 -0.77344,1.47657 m -25.52343,0.70312 1.47656,5.90625 -2.95313,-1.47656 0,2.17969 -1.47656,-4.35938 2.95313,-2.25 m 3.65625,7.3125 c -0.37502,0.98439 -1.10158,1.73439 -2.17969,2.25 l 2.17969,-2.25 m 10.96875,5.90625 0,3.65625 7.24218,-2.25 -7.24218,-1.40625"
         style="font-size:144px;fill:#ffffff;font-family:'A Sick Font www.kornnet.too.it';-inkscape-font-specification:'A Sick Font www.kornnet.too.it'"
         id="path3852"
         inkscape:connector-curvature="0" />
      <path
         d="m 533.32812,89.519506 -2.46093,1.96875 -3.375,5.34375 0.98437,3.867184 -9.28125,11.67188 5.34375,-3.86719 -11.67187,17.01563 2.46093,0.98437 9.21094,-11.17969 -3.375,6.32813 -3.86719,3.375 -1.96875,3.9375 -3.9375,1.40625 -2.39062,4.42969 0.98437,1.40625 -1.96875,3.44531 2.46094,0.98437 -1.96875,1.47657 4.85156,11.17968 -0.98437,1.40625 0.49219,3.9375 -2.39063,-0.98437 1.40625,1.47656 0.98438,0 2.46093,3.86719 -0.49218,0.98437 0.98437,2.46094 -0.98437,0.42188 1.96875,4.42968 -1.96875,0.49219 -2.95313,-1.96875 0.98438,1.96875 3.9375,1.89844 5.34375,25.3125 -1.47657,1.96875 2.46094,3.375 0.49219,-2.39063 0.42187,2.88282 2.95313,6.32812 -2.95313,1.47656 0.49219,3.86719 -2.39062,0.98438 -4.85157,-8.71875 0.42188,-4.42969 c -1.73442,-1.03123 -2.85942,-2.64842 -3.375,-4.85156 L 509,184.93357 l -3.9375,-3.44531 -8.22656,-31.14844 -3.44532,3.44531 -7.3125,19.89844 -2.39062,22.92187 0,6.32813 -2.95313,1.40625 -0.49218,-2.39063 -0.98438,0.98438 0.98438,1.40625 -1.40625,-1.40625 -0.98438,1.40625 1.40625,2.95312 3.9375,3.375 -3.44531,-0.91406 -0.49219,2.39063 -4.85156,-1.47657 -1.47656,-2.39062 2.95312,-2.95313 -2.95312,-7.3125 -0.91407,-5.83593 0.91407,-1.40625 -1.40625,-9.28125 0,-7.80469 -0.98438,-0.91406 -0.98437,-5.90625 1.96875,-3.375 -1.47657,-4.35938 1.47657,-3.44531 -0.98438,-0.98438 0.49219,-26.22656 3.375,-15.60937 3.44531,1.47656 2.88281,-1.96875 c 0.0937,-1.87489 0.91405,-3.49208 2.46094,-4.85156 l -0.49219,5.34375 2.88282,4.42968 -1.40625,4.35938 0.98437,4.85156 -1.96875,19.47656 0.98438,0.98438 9.21093,-16.10156 1.96875,-4.85157 15.60938,-22.85156 3.86719,-1.96875 -2.46094,1.96875 1.47656,1.47656 6.82031,-3.9375 9.70313,-11.179684 2.95312,0 m -17.01562,9.703125 c -0.14067,0.421995 -0.4688,0.75012 -0.98438,0.984379 l 0.98438,-0.984379 m -5.34375,6.328129 -4.42969,4.92187 -0.98437,4.85156 7.3125,-8.29687 -1.89844,-1.47656 m 14.55469,1.96875 c 0.56244,0.28136 0.89056,0.77355 0.98437,1.47656 l -0.98437,-1.47656 m -7.80469,4.85156 -1.40625,1.96875 2.88281,-0.98438 c -0.2813,-0.46864 -0.77349,-0.79676 -1.47656,-0.98437 m 8.78906,0.98437 0.49219,1.96875 -0.98438,-0.49218 0.49219,-1.47657 m -10.6875,1.47657 c 0.32808,0.51573 0.82026,0.84385 1.47656,0.98437 l -1.47656,-0.98437 m -0.98437,0.98437 -0.49219,1.89844 1.47656,-0.91406 c -0.14067,-0.32803 -0.4688,-0.65615 -0.98437,-0.98438 m -2.46094,11.17969 0.98437,0 -0.49218,-0.98438 -0.49219,0.98438 m -0.98438,0.49219 -2.39062,1.47656 2.88281,0.49219 -0.49219,-1.96875 m -4.35937,9.70312 0,0.98438 0.98437,-0.49219 -0.98437,-0.49219 m -0.49219,5.34375 1.47656,2.46094 c -0.28129,-0.74993 -0.77347,-1.57024 -1.47656,-2.46094 m 0.98438,4.42969 2.46093,6.32812 c -0.0938,-2.15618 -0.9141,-4.26555 -2.46093,-6.32812 m -1.47657,4.35937 1.47657,2.46094 c -0.23442,-0.93743 -0.72661,-1.75774 -1.47657,-2.46094 m 3.9375,2.46094 c 0.37496,0.65632 1.00777,1.12507 1.89844,1.40625 l -1.89844,-1.40625 m -2.46093,3.375 1.47656,0.49219 -0.49219,-1.47656 -0.98437,0.98437 m 5.34375,2.95313 -1.47657,0.91406 c 0.65621,-0.0937 1.1484,-0.39838 1.47657,-0.91406 m -0.98438,2.39062 c 0.28121,0.46881 0.77339,0.79693 1.47656,0.98438 l -1.47656,-0.98438 m -29.67187,3.9375 0.98437,0.91406 0.49219,-1.89843 -0.98438,0 -0.49218,0.98437 m 22.42968,6.75 0.91407,0.49219 -0.49219,-1.40625 -0.42188,0.91406 m 1.40625,5.90625 1.47657,0.91406 c -0.28129,-0.46871 -0.77348,-0.77339 -1.47657,-0.91406 m 0.49219,0.91406 0.98438,0.98438 c -0.14067,-0.32809 -0.46879,-0.65621 -0.98438,-0.98438 m 14.625,17.08594 0.98438,0.91406 c -0.0938,-0.37497 -0.42193,-0.67966 -0.98438,-0.91406 m -42.82031,1.89844 c 0.0469,1.07814 0.51561,1.89845 1.40625,2.46094 l -1.40625,-2.46094 m -1.96875,2.46094 0.98437,2.88281 0,-2.39063 -0.98437,-0.49218 m -0.49219,11.17968 c 0.70312,0.32814 1.35937,0.98438 1.96875,1.96875 l -1.96875,-1.96875 m 2.95313,0 0.91406,1.47657 c -0.42189,-0.28125 -0.72658,-0.77344 -0.91406,-1.47657 m 2.88281,4.85157 -1.47656,1.96875 0.49218,-2.95313 0.98438,0.98438"
         style="font-size:144px;fill:#ffffff;font-family:'A Sick Font www.kornnet.too.it';-inkscape-font-specification:'A Sick Font www.kornnet.too.it'"
         id="path3854"
         inkscape:connector-curvature="0" />
      <path
         d="m 545.49219,133.81638 14.97656,13.78125 -4.35938,2.46094 -4.99218,-2.46094 -6.89063,-8.15625 1.26563,-5.625 m 10.61718,24.39844 1.26563,7.45312 0,30.65625 -1.89844,3.72657 3.09375,-0.5625 -1.82812,4.35937 -1.26563,6.89063 0,8.71875 -1.89844,0 -3.72656,-13.78125 1.26563,-7.45313 -0.63282,-9.42187 -2.53125,-4.35938 1.89844,-2.46094 1.89844,-8.15625 0,-8.71875 c 0.98436,-2.43744 2.43748,-4.73431 4.35937,-6.89062 m -8.15625,31.85156 1.89844,1.89844 -1.89844,1.26562 0.63282,-1.89843 -0.63282,-1.26563 m 7.52344,11.25 0.63281,0.63281 0.63282,-1.89843 -1.26563,1.26562 m -11.88281,1.89844 c -0.98438,2.25001 -2.4375,4.33595 -4.35938,6.25781 l 4.35938,-6.25781"
         style="font-size:144px;fill:#ffffff;font-family:'A Sick Font www.kornnet.too.it';-inkscape-font-specification:'A Sick Font www.kornnet.too.it'"
         id="path3856"
         inkscape:connector-curvature="0" />
      <path
         d="m 626.49219,143.66013 4.21875,0.70313 -29.03907,56.67187 -3.58593,9.21094 -0.70313,4.99219 1.47656,2.10937 -2.17968,2.10938 -10.61719,-4.99219 1.40625,-7.03125 -18.42188,-41.13281 1.40625,-7.73438 -2.10937,-2.17969 -2.10938,-7.73437 4.21875,-1.47656 8.50782,22.71093 3.58593,-3.58593 5.625,8.50781 3.58594,26.92969 2.10938,-2.10938 10.61718,-23.41406 10.61719,-15.53906 6.39844,-7.10157 c 1.03119,-2.95305 2.69525,-6.25774 4.99219,-9.91406 m -24.82032,48.16406 0.70313,1.40625 1.40625,-0.70312 0,-2.10938 -2.10938,1.40625 m 0,1.40625 -0.70312,2.88282 1.40625,-0.77344 -0.70313,-2.10938 m -1.40625,3.58594 -0.70312,2.10938 2.10937,-1.40625 -1.40625,-0.70313"
         style="font-size:144px;fill:#ffffff;font-family:'A Sick Font www.kornnet.too.it';-inkscape-font-specification:'A Sick Font www.kornnet.too.it'"
         id="path3858"
         inkscape:connector-curvature="0" />
      <path
         d="m 642.03125,138.73826 c 2.34374,1.17195 3.53905,3.37507 3.58594,6.60937 1.45311,-2.1093 3.65623,-3.30461 6.60937,-3.58594 l 0,19.19532 9,19.125 -1.82812,4.85156 3.02343,1.75781 4.14844,-5.97656 2.39063,-13.78125 3.65625,-10.82813 -1.19532,-1.75781 -0.63281,-5.41406 4.21875,-5.97656 2.95313,-1.19532 1.19531,5.97657 0.63281,22.14843 -1.19531,7.24219 1.19531,9.5625 0,27 1.19531,1.82813 -3.58593,11.95312 1.19531,3.58594 -5.41406,0 -4.21875,4.21875 9,2.39062 -4.14844,1.19532 -6.04688,-0.63282 -9,6.60938 -7.73437,0.63281 -10.26563,-2.46094 -14.34375,1.19532 -4.78125,-1.75782 -6.60937,-0.63281 -0.5625,-2.39062 -3.65625,-1.75782 1.26562,-3.02343 5.97657,4.78125 8.92968,3.02343 8.4375,-0.63281 -3.02343,-4.14844 -6.60938,-2.39062 -3.58594,-2.46094 1.19532,3.02344 -5.34375,-1.82813 -1.19532,-3.58593 8.92969,1.82812 13.21875,0 -3.58594,-1.82812 -4.85156,0.63281 -2.95312,-1.82813 7.17187,-1.19531 9.63281,0.63281 19.19532,-1.82812 c 2.43746,-1.07813 4.21871,-3.07032 5.34375,-5.97656 l 1.82812,-9 0,-24.53907 -6.60937,3.58594 -6.60938,0.5625 -8.36719,-8.36719 -4.21875,-7.17187 -2.39062,-10.82813 -0.5625,-26.36718 m 5.34375,12.02343 0.63281,1.75782 0.5625,-1.19532 -1.19531,-0.5625 m 0,10.75782 1.19531,7.17187 1.82813,0 c -0.79689,-2.43745 -1.80471,-4.82807 -3.02344,-7.17187 m 6.04687,12.58593 1.19532,0 -0.63282,-1.19531 -0.5625,1.19531 m 23.97657,1.19532 1.19531,1.19531 c -0.14067,-0.37496 -0.53911,-0.77339 -1.19531,-1.19531 m -22.78125,0.63281 0,1.19531 1.19531,-0.63281 -1.19531,-0.5625 m 0.5625,2.39062 1.19531,0 -0.5625,-1.19531 -0.63281,1.19531 m 1.82812,49.71094 -1.82812,1.82813 c 0.93747,-0.23439 1.54685,-0.84376 1.82812,-1.82813 m -3.58594,0.63281 -1.82812,1.19532 c 1.07811,-0.0938 1.68748,-0.4922 1.82812,-1.19532 m 4.78125,2.95313 -3.58593,1.19531 5.34375,0 -1.75782,-1.19531 m 8.36719,0.63281 -2.39062,3.02344 c 1.35934,-0.70314 2.15621,-1.71095 2.39062,-3.02344 m -39.58594,1.19531 1.82813,1.82813 c -0.28125,-0.89064 -0.89062,-1.50002 -1.82813,-1.82813 m 18.63282,0 -10.19532,1.19532 2.95313,3.02343 12.02344,-1.82812 -4.78125,-2.39063 m -31.78125,0 1.82812,1.19532 c -0.74998,-0.14064 -1.35935,-0.53908 -1.82812,-1.19532 m 43.17187,2.39063 -16.24219,3.02344 2.46094,1.19531 18,-3.02344 -4.21875,-1.19531 m 2.95313,3.58594 -7.73438,1.82812 2.95313,2.39063 7.80468,-2.39063 -3.02343,-1.82812"
         style="font-size:144px;fill:#ffffff;font-family:'A Sick Font www.kornnet.too.it';-inkscape-font-specification:'A Sick Font www.kornnet.too.it'"
         id="path3860"
         inkscape:connector-curvature="0" />
    </g>
  </g>
</svg>
