<?xml version="1.0" encoding="UTF-8" standalone="no"?>
<!-- Generator: Adobe Illustrator 11 Build 196, SVG Export Plug-In . SVG Version: 6.0.0 Build 78)  -->

<svg
   xmlns:dc="http://purl.org/dc/elements/1.1/"
   xmlns:cc="http://creativecommons.org/ns#"
   xmlns:rdf="http://www.w3.org/1999/02/22-rdf-syntax-ns#"
   xmlns:svg="http://www.w3.org/2000/svg"
   xmlns="http://www.w3.org/2000/svg"
   xmlns:sodipodi="http://sodipodi.sourceforge.net/DTD/sodipodi-0.dtd"
   xmlns:inkscape="http://www.inkscape.org/namespaces/inkscape"
   enable-background="new 0 0 109.459 160.596"
   height="128"
   overflow="visible"
   space="preserve"
   viewBox="0 0 128 128.00001"
   width="128"
   id="svg2"
   version="1.1"
   inkscape:version="0.48.3.1 r9886"
   sodipodi:docname="gazelle.svg"
   style="overflow:visible"
   inkscape:export-filename="/home/davideddu/Dropbox/Public/bash-karaoke/bashkaraoke-gtk/data/gazelle48.png"
   inkscape:export-xdpi="33.75"
   inkscape:export-ydpi="33.75">
  <defs
     id="defs11" />
  <sodipodi:namedview
     pagecolor="#ffffff"
     bordercolor="#666666"
     borderopacity="1"
     objecttolerance="10"
     gridtolerance="10"
     guidetolerance="10"
     inkscape:pageopacity="0"
     inkscape:pageshadow="2"
     inkscape:window-width="1301"
     inkscape:window-height="744"
     id="namedview9"
     showgrid="false"
     inkscape:zoom="2.9390522"
     inkscape:cx="101.73536"
     inkscape:cy="67.627916"
     inkscape:window-x="65"
     inkscape:window-y="24"
     inkscape:window-maximized="1"
     inkscape:current-layer="svg2"
     fit-margin-top="10"
     fit-margin-left="10"
     fit-margin-right="10"
     fit-margin-bottom="10" />
  <metadata
     id="metadata4">
    <rdf:RDF>
      <cc:Work
         rdf:about="">
        <dc:title>Deer</dc:title>
        <dc:description />
        <dc:subject>
          <rdf:Bag>
            <rdf:li>deer</rdf:li>
            <rdf:li>mammal</rdf:li>
            <rdf:li />
            <rdf:li>animal</rdf:li>
            <rdf:li>shape</rdf:li>
          </rdf:Bag>
        </dc:subject>
        <dc:publisher>
          <cc:Agent
             rdf:about="http://www.openclipart.org">
            <dc:title>Matt Todd</dc:title>
          </cc:Agent>
        </dc:publisher>
        <dc:creator>
          <cc:Agent>
            <dc:title>Matt Todd</dc:title>
          </cc:Agent>
        </dc:creator>
        <dc:rights>
          <cc:Agent>
            <dc:title>Matt Todd</dc:title>
          </cc:Agent>
        </dc:rights>
        <dc:date />
        <dc:format>image/svg+xml</dc:format>
        <dc:type
           rdf:resource="http://purl.org/dc/dcmitype/StillImage" />
        <cc:license
           rdf:resource="http://web.resource.org/cc/PublicDomain" />
        <dc:language>en</dc:language>
      </cc:Work>
      <cc:License
         rdf:about="http://web.resource.org/cc/PublicDomain">
        <cc:permits
           rdf:resource="http://web.resource.org/cc/Reproduction" />
        <cc:permits
           rdf:resource="http://web.resource.org/cc/Distribution" />
        <cc:permits
           rdf:resource="http://web.resource.org/cc/DerivativeWorks" />
      </cc:License>
    </rdf:RDF>
  </metadata>
  <path
     inkscape:connector-curvature="0"
     id="path7"
     d="m 78.139606,9.6320564 c 3.630266,-0.2606966 7.352674,-0.5669239 10.410076,1.0072876 2.475742,1.274278 7.162833,1.159853 10.032995,1.159853 1.365298,0 -1.263877,3.086008 -1.224001,4.129703 0.113558,3.011459 -5.983909,3.665068 -7.841582,4.452174 -2.866693,1.215332 -1.670432,3.157956 -1.914019,5.648435 -0.651876,6.647919 1.799593,11.417362 4.14444,17.350125 0.708221,1.792659 2.089123,4.309143 1.915752,6.308113 -0.312935,3.608723 5.347637,-0.571259 7.002463,-1.153785 2.52862,-0.890262 7.27031,-2.135934 9.94283,-1.043696 3.42928,1.40084 2.03538,4.472978 0.22105,6.479751 -3.46829,3.838439 -0.4629,6.854231 -1.49619,10.885112 -0.36928,1.441582 -6.7502,8.0791 -7.76963,7.199241 -3.335657,-2.878829 1.2084,-4.313476 2.38646,-6.504889 0.53571,-0.996017 1.29074,-10.768087 1.07403,-10.75335 -0.99861,0.06761 -3.22904,1.827332 -4.16524,2.282432 -2.789542,1.354029 -5.543545,2.80688 -8.054828,4.636814 -5.36844,2.36565 -10.90505,4.528456 -16.59076,6.011648 -7.786969,2.03191 -15.000946,2.884029 -22.457643,6.353189 -4.257131,1.979898 -3.502965,6.308112 -6.705132,9.534551 -3.188297,3.211699 -7.79217,5.24361 -11.471976,7.844179 -2.968115,2.097793 -5.586021,5.422185 -7.243449,8.620886 -1.921821,3.71101 -1.50573,8.67377 -2.170608,12.72199 -0.460301,2.80514 -3.935527,4.89513 -5.603359,7.09521 -3.613924,4.76424 -3.084274,-3.24811 -1.613219,-3.85491 2.767872,-1.14251 3.616524,-6.75021 3.771692,-9.51201 0.248787,-4.42357 -1.5222,-7.89533 1.641825,-11.349752 5.906758,-6.448543 10.775022,-14.011862 6.247432,-23.06184 -1.888012,-3.774293 3.051334,-7.14723 -1.932222,-8.12591 -2.263362,-0.443831 -4.811052,-8.67e-4 -6.4026,-2.023242 -2.005038,-2.547691 -0.638873,-5.800135 1.198862,-8.006284 0.222783,-0.330273 0.506244,-0.586861 0.850386,-0.770635 -0.319869,0 0.03381,4.395827 0.850386,4.95755 1.831667,1.260409 4.691426,3.431017 7.022402,3.505566 2.003304,0.06328 5.32423,-2.156738 6.647053,-3.479561 0.970879,-0.970878 4.365488,-1.30115 5.733386,-1.584612 3.346933,-0.692618 5.944034,-1.303752 9.17654,-2.621373 4.069023,-1.658296 8.083434,-3.583584 11.665284,-6.151212 8.652958,-6.202356 10.228903,-16.959174 9.130597,-27.058915 -0.236652,-2.174075 0.739428,-5.58082 -0.515781,-7.437626 -0.298198,-0.44123 -1.649627,-0.313802 -2.168874,-0.772369 -0.661411,-0.584262 -2.128132,-2.7756742 -2.391656,-3.668536 -1.081837,-3.6607337 5.252567,1.49208 4.406515,1.436601 0.84222,-0.07248 0.772109,-0.135651 2.183053,-0.425207"
     sodipodi:nodetypes="ccscccccccccccccccccccccccccccccccsccccccccc" />
</svg>
