<?xml version="1.0" encoding="UTF-8" standalone="no"?>
<!-- Created with Inkscape (http://www.inkscape.org/) -->

<svg
   xmlns:dc="http://purl.org/dc/elements/1.1/"
   xmlns:cc="http://creativecommons.org/ns#"
   xmlns:rdf="http://www.w3.org/1999/02/22-rdf-syntax-ns#"
   xmlns:svg="http://www.w3.org/2000/svg"
   xmlns="http://www.w3.org/2000/svg"
   xmlns:sodipodi="http://sodipodi.sourceforge.net/DTD/sodipodi-0.dtd"
   xmlns:inkscape="http://www.inkscape.org/namespaces/inkscape"
   width="512"
   height="512"
   id="svg2"
   version="1.1"
   inkscape:version="0.48.4 r9939"
   sodipodi:docname="icon.svg">
  <defs
     id="defs4" />
  <sodipodi:namedview
     id="base"
     pagecolor="#ffffff"
     bordercolor="#666666"
     borderopacity="1.0"
     inkscape:pageopacity="0.0"
     inkscape:pageshadow="2"
     inkscape:zoom="0.7"
     inkscape:cx="332.74562"
     inkscape:cy="205.80914"
     inkscape:document-units="px"
     inkscape:current-layer="layer1"
     showgrid="false"
     inkscape:window-width="1366"
     inkscape:window-height="717"
     inkscape:window-x="-2"
     inkscape:window-y="-3"
     inkscape:window-maximized="1" />
  <metadata
     id="metadata7">
    <rdf:RDF>
      <cc:Work
         rdf:about="">
        <dc:format>image/svg+xml</dc:format>
        <dc:type
           rdf:resource="http://purl.org/dc/dcmitype/StillImage" />
        <dc:title />
      </cc:Work>
    </rdf:RDF>
  </metadata>
  <g
     inkscape:label="Layer 1"
     inkscape:groupmode="layer"
     id="layer1"
     transform="translate(0,-540.36218)">
    <g
       transform="matrix(11.736148,0,0,11.736148,-3.1217838,-1246.8221)"
       style="font-size:40px;font-style:normal;font-variant:normal;font-weight:normal;font-stretch:normal;line-height:125%;letter-spacing:0.01025156px;word-spacing:0px;fill:#000000;fill-opacity:1;stroke:none;font-family:'A Sick Font www.kornnet.too.it';-inkscape-font-specification:'A Sick Font www.kornnet.too.it'"
       id="flowRoot3006">
      <path
         d="m 22.664062,155.64431 -0.683593,0.54687 -0.9375,1.48438 0.273437,1.07422 -2.578125,3.24218 1.484375,-1.07422 -3.242187,4.72657 0.683593,0.27343 2.558594,-3.10546 -0.9375,1.75781 -1.074219,0.9375 -0.546875,1.09375 -1.09375,0.39062 -0.664062,1.23047 0.273437,0.39063 -0.546874,0.95703 0.683593,0.27344 -0.546875,0.41015 1.347656,3.10547 -0.273437,0.39063 0.136719,1.09375 -0.664063,-0.27344 0.390625,0.41015 0.273438,0 0.683593,1.07422 -0.136718,0.27344 0.273437,0.68359 -0.273437,0.11719 0.546875,1.23047 -0.546875,0.13672 -0.820313,-0.54688 0.273438,0.54688 1.09375,0.52734 1.484375,7.03125 -0.410157,0.54688 0.683594,0.9375 0.136719,-0.66406 0.117187,0.80078 0.820313,1.75781 -0.820313,0.41016 0.136719,1.07421 -0.664062,0.27344 -1.347657,-2.42187 0.117188,-1.23047 c -0.481785,-0.28646 -0.794284,-0.73567 -0.9375,-1.34766 l -1.484375,-4.04297 -1.09375,-0.95703 -2.285156,-8.65234 -0.957031,0.95703 -2.0312505,5.52734 -0.6640625,6.36719 0,1.75781 -0.8203125,0.39063 -0.1367188,-0.66406 -0.2734375,0.27343 0.2734375,0.39063 -0.390625,-0.39063 -0.2734375,0.39063 0.390625,0.82031 1.0937501,0.9375 -0.9570313,-0.25391 -0.1367188,0.66407 -1.3476562,-0.41016 -0.4101563,-0.66406 0.8203125,-0.82031 -0.8203125,-2.03125 -0.2539062,-1.6211 0.2539062,-0.39062 -0.390625,-2.57813 0,-2.16797 -0.2734375,-0.2539 -0.2734375,-1.64063 0.546875,-0.9375 -0.4101562,-1.21094 0.4101562,-0.95703 -0.2734375,-0.27343 0.1367188,-7.28516 0.9375,-4.33594 0.9570312,0.41016 0.8007813,-0.54688 c 0.026038,-0.5208 0.253902,-0.97002 0.6835938,-1.34765 l -0.1367188,1.48437 0.8007813,1.23047 -0.390625,1.21094 0.2734375,1.34765 -0.546875,5.41016 0.2734375,0.27344 2.5585942,-4.47266 0.546875,-1.34765 4.335937,-6.34766 1.074219,-0.54688 -0.683594,0.54688 0.410156,0.41016 1.894531,-1.09375 2.695313,-3.10547 0.820312,0 m -4.726562,2.69531 c -0.03908,0.11722 -0.130222,0.20837 -0.273438,0.27344 l 0.273438,-0.27344 m -1.484375,1.75781 -1.230469,1.36719 -0.273437,1.34766 2.03125,-2.30469 -0.527344,-0.41016 m 4.042969,0.54688 c 0.156233,0.0782 0.247379,0.21487 0.273437,0.41015 l -0.273437,-0.41015 m -2.167969,1.34765 -0.390625,0.54688 0.800781,-0.27344 c -0.07814,-0.13018 -0.214858,-0.22132 -0.410156,-0.27344 m 2.441406,0.27344 0.136719,0.54688 -0.273438,-0.13672 0.136719,-0.41016 m -2.96875,0.41016 c 0.09113,0.14326 0.227851,0.2344 0.410156,0.27343 l -0.410156,-0.27343 m -0.273437,0.27343 -0.136719,0.52735 0.410156,-0.25391 c -0.03908,-0.0911 -0.130222,-0.18226 -0.273437,-0.27344 m -0.683594,3.10547 0.273437,0 -0.136718,-0.27343 -0.136719,0.27343 m -0.273438,0.13672 -0.664062,0.41016 0.800781,0.13672 -0.136719,-0.54688 m -1.210937,2.69531 0,0.27344 0.273438,-0.13672 -0.273438,-0.13672 m -0.136719,1.48438 0.410157,0.68359 c -0.07814,-0.20831 -0.214856,-0.43617 -0.410157,-0.68359 m 0.273438,1.23047 0.683593,1.75781 c -0.02605,-0.59894 -0.253918,-1.18488 -0.683593,-1.75781 m -0.410156,1.21094 0.410156,0.68359 c -0.06512,-0.2604 -0.201834,-0.48826 -0.410156,-0.68359 m 1.093749,0.68359 c 0.104155,0.18231 0.279936,0.31252 0.527344,0.39062 l -0.527344,-0.39062 m -0.683593,0.9375 0.410156,0.13672 -0.136719,-0.41016 -0.273437,0.27344 m 1.484375,0.82031 -0.410157,0.25391 c 0.182279,-0.026 0.318998,-0.11066 0.410157,-0.25391 m -0.273438,0.66406 c 0.07811,0.13023 0.214831,0.22137 0.410156,0.27344 l -0.410156,-0.27344 m -8.2421872,1.09375 0.2734375,0.25391 0.1367187,-0.52734 -0.2734375,0 -0.1367187,0.27343 m 6.2304692,1.875 0.253906,0.13672 -0.136719,-0.39062 -0.117187,0.2539 m 0.390625,1.64063 0.410156,0.25391 c -0.07814,-0.1302 -0.214855,-0.21484 -0.410156,-0.25391 m 0.136718,0.25391 0.273438,0.27343 c -0.03907,-0.0911 -0.13022,-0.18228 -0.273438,-0.27343 m 4.0625,4.74609 0.273438,0.25391 c -0.02606,-0.10416 -0.117203,-0.1888 -0.273438,-0.25391 m -11.894531,0.52734 c 0.013018,0.29949 0.1432257,0.52735 0.390625,0.6836 l -0.390625,-0.6836 m -0.546875,0.6836 0.2734375,0.80078 0,-0.66406 -0.2734375,-0.13672 m -0.1367188,3.10547 c 0.1953097,0.0911 0.3776012,0.27344 0.546875,0.54687 l -0.546875,-0.54687 m 0.8203125,0 0.2539063,0.41015 c -0.1171911,-0.0781 -0.2018265,-0.21484 -0.2539063,-0.41015 m 0.8007813,1.34765 -0.4101563,0.54688 0.1367188,-0.82032 0.2734375,0.27344"
         style="line-height:125%;font-family:'A Sick Font www.kornnet.too.it';-inkscape-font-specification:'A Sick Font www.kornnet.too.it'"
         id="path2987" />
      <path
         d="m 37.068846,167.07009 -3.515625,3.49609 -1.152344,1.89453 1.015625,-0.42968 1.894531,-2.63672 2.910156,-1.89453 0.585938,-0.13672 -3.652344,4.375 -0.722656,1.44531 -0.878906,1.03516 -0.429688,1.30859 -0.449219,-0.58594 -0.429687,1.89453 0.429687,1.75782 4.960938,10.33203 1.464844,1.03515 -0.585938,0.13672 0.449219,1.3086 -0.878906,0.15625 0.292968,1.15234 c -0.690117,-0.15625 -1.178398,-0.59245 -1.464843,-1.30859 l -0.722657,1.15234 -1.328125,-2.30469 -1.152343,0 0.585937,-0.74219 -0.449219,-1.73828 -1.171875,-1.75781 -1.738281,-5.68359 -0.585937,0.58593 -1.894532,5.52735 0.429688,1.46484 -0.429688,0.29297 -1.171875,-0.42969 -0.585937,1.3086 -0.429688,-1.01563 0.136719,-0.74219 -0.429687,-1.30859 0.292968,-0.29297 -1.035156,-5.97656 0.292969,-1.15234 -0.429688,-2.48047 0.292969,-0.44922 -0.292969,-2.32422 1.015625,-1.46484 0.15625,-0.87891 -0.292968,-0.42969 0.722656,-0.42969 0.585937,2.32422 0.722657,5.39063 1.035156,-0.29297 0.429687,-1.60156 1.757813,-3.4961 1.308594,-1.60156 2.910156,-2.77344 1.621094,-1.01562 m -1.035157,2.1875 0.292969,0 -0.136719,-0.29297 -0.15625,0.29297 m 0.742188,0.42969 c 0.104154,0.0261 0.20181,0.12372 0.292969,0.29296 l -0.292969,-0.29296 m -2.929688,3.0664 0,0.29297 0.292969,-0.15625 -0.292969,-0.13672 m -3.925781,2.1875 0.429688,0.42969 c -0.07813,-0.1953 -0.221361,-0.33853 -0.429688,-0.42969 m -0.449219,1.60156 -0.136718,0.42969 0.292968,0.15625 -0.15625,-0.58594 m -4.082031,0.87891 0,0.29297 0.292969,-0.15625 -0.292969,-0.13672 m 4.804688,0.58594 -1.601563,3.20312 0.742188,0 c 0.520827,-1.49738 0.807285,-2.56509 0.859375,-3.20312 m -1.445313,3.63281 c 0.07812,0.23439 0.221349,0.4297 0.429688,0.58594 l -0.429688,-0.58594 m 3.066406,0 c 0.05208,0.32553 0.247388,0.57293 0.585938,0.74219 l -0.585938,-0.74219 m -4.824218,0.74219 0.292968,0.5664 c -0.03906,-0.22134 -0.136722,-0.41014 -0.292968,-0.5664 m 1.464843,0.85937 0.292969,0 -0.15625,-0.29297 -0.136719,0.29297 m 3.652344,-0.29297 0.566406,0.58594 c -0.09115,-0.20832 -0.279956,-0.40363 -0.566406,-0.58594 m 2.480469,1.17188 0.136719,-0.72266 -0.292969,0.13672 0.15625,0.58594 m -5.839844,-0.42969 0.292969,0.29297 c -0.03907,-0.10416 -0.136724,-0.20181 -0.292969,-0.29297 m 4.082031,0.29297 -0.15625,0.42969 0.292969,0 -0.136719,-0.42969 m -5.546875,0.42969 -0.136718,0.42969 0.292968,0 0.136719,-0.29297 -0.292969,-0.13672 m -0.429687,0.42969 0.136719,1.46484 0.449218,0.87891 0.429688,-1.3086 -1.015625,-1.03515 m 8.007812,0.44921 c 0.09113,0.1823 0.240875,0.32553 0.449219,0.42969 l -0.449219,-0.42969 m 0.449219,0.72266 c 0.104155,0.23438 0.299468,0.37761 0.585938,0.42969 l -0.585938,-0.42969 m -2.1875,0.58594 0.292969,0.29297 c -0.02605,-0.13021 -0.123707,-0.22786 -0.292969,-0.29297 m 1.171875,0.13672 c 0.01301,0.19531 0.110667,0.34505 0.292969,0.44922 l -0.292969,-0.44922 m -6.71875,0.44922 0.292969,0.29296 c -0.03907,-0.10416 -0.136723,-0.20181 -0.292969,-0.29296 m 8.320313,0 0.429687,0.42968 c -0.06512,-0.20833 -0.208345,-0.35155 -0.429687,-0.42968 m -1.464844,0.72265 0.292969,0.15625 -0.136719,-0.44922 -0.15625,0.29297 m 0.429687,0.72266 0.742188,0.8789 c -0.182303,-0.31249 -0.429699,-0.60546 -0.742188,-0.8789 m 2.929688,2.05078 0.136719,0.42969 0.15625,-0.29297 -0.292969,-0.13672 m 1.015625,2.32422 0.449219,0.58594 -0.878907,0.13671 0.429688,-0.72265 m 0.585937,0.8789 0.292969,0.29297 c -0.143245,-0.0521 -0.240901,-0.14974 -0.292969,-0.29297"
         style="line-height:125%;font-family:'A Sick Font www.kornnet.too.it';-inkscape-font-specification:'A Sick Font www.kornnet.too.it'"
         id="path2989" />
    </g>
  </g>
</svg>
