<?xml version="1.0" encoding="UTF-8" standalone="no"?>
<!-- Generator: Adobe Illustrator 13.0.2, SVG Export Plug-In . SVG Version: 6.00 Build 14948)  -->

<svg
   xmlns:dc="http://purl.org/dc/elements/1.1/"
   xmlns:cc="http://creativecommons.org/ns#"
   xmlns:rdf="http://www.w3.org/1999/02/22-rdf-syntax-ns#"
   xmlns:svg="http://www.w3.org/2000/svg"
   xmlns="http://www.w3.org/2000/svg"
   xmlns:sodipodi="http://sodipodi.sourceforge.net/DTD/sodipodi-0.dtd"
   xmlns:inkscape="http://www.inkscape.org/namespaces/inkscape"
   version="1.0"
   id="Layer_1"
   x="0px"
   y="0px"
   width="128"
   height="128"
   viewBox="-0.258 -0.548 246.46821 163.81428"
   xml:space="preserve"
   sodipodi:version="0.32"
   inkscape:version="0.48.3.1 r9886"
   sodipodi:docname="man.svg"
   inkscape:output_extension="org.inkscape.output.svg.inkscape"
   inkscape:export-filename="/home/davideddu/Dropbox/Public/bash-karaoke/bashkaraoke-gtk/data/man48.png"
   inkscape:export-xdpi="33.75"
   inkscape:export-ydpi="33.75"><metadata
   id="metadata18"><rdf:RDF><cc:Work
       rdf:about=""><dc:format>image/svg+xml</dc:format><dc:type
         rdf:resource="http://purl.org/dc/dcmitype/StillImage" /><dc:title></dc:title></cc:Work></rdf:RDF></metadata><defs
   id="defs16"><inkscape:perspective
   sodipodi:type="inkscape:persp3d"
   inkscape:vp_x="0 : 61.769501 : 1"
   inkscape:vp_y="0 : 1000 : 0"
   inkscape:vp_z="123.547 : 61.769501 : 1"
   inkscape:persp3d-origin="61.773499 : 41.179667 : 1"
   id="perspective20" />
	
	
	
	
	
</defs><sodipodi:namedview
   inkscape:window-height="744"
   inkscape:window-width="1301"
   inkscape:pageshadow="2"
   inkscape:pageopacity="0.0"
   guidetolerance="10.0"
   gridtolerance="10.0"
   objecttolerance="10.0"
   borderopacity="1.0"
   bordercolor="#666666"
   pagecolor="#ffffff"
   id="base"
   showgrid="false"
   inkscape:zoom="3.7397097"
   inkscape:cx="48.597451"
   inkscape:cy="74.639447"
   inkscape:window-x="65"
   inkscape:window-y="24"
   inkscape:current-layer="Layer_1"
   fit-margin-top="10"
   fit-margin-left="10"
   fit-margin-right="10"
   fit-margin-bottom="10"
   inkscape:window-maximized="1" />
<g
   id="g2398"
   transform="matrix(-2.3440658,0,0,2.3440658,199.6022,-29.489578)"><path
     d="m 28.402498,15.443998 c 4.398,0 7.984,-3.57 7.984,-7.9840002 0,-4.422 -3.586,-8.008 -7.984,-8.008 -4.414,0 -8,3.586 -8,8.008 0,4.4130002 3.585,7.9840002 8,7.9840002 z"
     id="path11"
     inkscape:connector-curvature="0" /><path
     sodipodi:nodetypes="ccsccccsccccsccccccsscccscccccccscccccccssc"
     d="m 62.753498,86.654998 -12.984,-15.328 c 0,0 -4.055,-23.68 -4.055,-23.734 0,-0.023 -0.609,-2.68 -0.609,-2.68 0.023,0.023 -1.641,-7.477 -2.906,-13.336 2.023,1.172 3.859,2.227 3.953,2.273 0.102,0.219 6.883,13.133 6.883,13.133 0.516,0.953 1.367,1.664 2.398,1.977 1.047,0.32 2.148,0.219 3.102,-0.289 0.945,-0.492 1.656,-1.344 1.977,-2.391 0.336,-1.031 0.242,-2.125 -0.273,-3.078 l -7.445,-14.188 c 0,0 -0.289,-0.508 -0.68,-0.898 -0.539,-0.539 -1.711,-1.203 -1.711,-1.203 l -14.453,-8.227 c -1.836,-0.922 -3.859,-1.242 -5.883,-0.805 -0.828,0.172 -1.609,0.492 -2.492,0.977 -0.102,0.023 -3.289,1.445 -5.148,5.789 l -7.422,14.938 c 0,0 -11.2972077,2.20185 -11.6879997,2.273 -2.124147,0.386734 -2.71116797,1.506071 -3.05499997,2.218 -0.430014,0.890376 -0.546178,1.688905 -0.516,2.617 0.414,2.195 2.56199997,3.656 4.76599997,3.219 l 14.0079997,-2.734 c 0,0 1.203,-0.367 1.711,-0.734 0.664,-0.461 1.148,-1.438 1.148,-1.438 l 3.688,-7.422 c 0,0 2.531,11.984 2.578,12.211 -0.289,0.289 -11.492,12.18 -11.492,12.18 l -0.195,0.242 c -1.094,1 -1.703,2.32 -1.703,3.711 l 0,25.195 c 0,2.688 2.195,4.859 4.883,4.859 2.656,0 4.852,-2.172 4.852,-4.859 0,0 0,-20.703 0,-21.047 1.031,-1.07 9.617,-10.125 11.914,-12.523 0.242,1.422 2.461,14.188 2.461,14.188 0.195,1.125 0.734,2.148 1.539,2.977 0,0.023 15.43,18.242 15.43,18.242 0.859,0.977 2.031,1.586 3.32,1.703 1.297,0.102 2.539,-0.312 3.539,-1.148 1.125,-0.945 1.711,-2.344 1.711,-3.711 -0.002,-1.118 -0.37,-2.22 -1.151,-3.149 z"
     id="path13"
     inkscape:connector-curvature="0" /></g>
</svg>