<?xml version="1.0" encoding="UTF-8" standalone="no"?>
<!-- Created with Inkscape (http://www.inkscape.org/) -->

<svg
   xmlns:dc="http://purl.org/dc/elements/1.1/"
   xmlns:cc="http://creativecommons.org/ns#"
   xmlns:rdf="http://www.w3.org/1999/02/22-rdf-syntax-ns#"
   xmlns:svg="http://www.w3.org/2000/svg"
   xmlns="http://www.w3.org/2000/svg"
   xmlns:sodipodi="http://sodipodi.sourceforge.net/DTD/sodipodi-0.dtd"
   xmlns:inkscape="http://www.inkscape.org/namespaces/inkscape"
   width="512"
   height="512"
   id="svg2"
   version="1.1"
   inkscape:version="0.48.4 r9939"
   sodipodi:docname="icon1.svg">
  <defs
     id="defs4" />
  <sodipodi:namedview
     id="base"
     pagecolor="#ffffff"
     bordercolor="#666666"
     borderopacity="1.0"
     inkscape:pageopacity="0.0"
     inkscape:pageshadow="2"
     inkscape:zoom="0.35"
     inkscape:cx="299.06969"
     inkscape:cy="377.91491"
     inkscape:document-units="px"
     inkscape:current-layer="g3017"
     showgrid="false"
     inkscape:window-width="1301"
     inkscape:window-height="744"
     inkscape:window-x="65"
     inkscape:window-y="24"
     inkscape:window-maximized="1" />
  <metadata
     id="metadata7">
    <rdf:RDF>
      <cc:Work
         rdf:about="">
        <dc:format>image/svg+xml</dc:format>
        <dc:type
           rdf:resource="http://purl.org/dc/dcmitype/StillImage" />
        <dc:title></dc:title>
      </cc:Work>
    </rdf:RDF>
  </metadata>
  <g
     inkscape:label="Layer 1"
     inkscape:groupmode="layer"
     id="layer1"
     transform="translate(0,-540.36218)">
    <g
       transform="matrix(2.6128172,0,0,2.6128172,-62.926097,480.96358)"
       style="font-size:40px;font-style:normal;font-variant:normal;font-weight:normal;font-stretch:normal;line-height:125%;letter-spacing:0px;word-spacing:0px;fill:#000000;fill-opacity:1;stroke:none;font-family:Nobile;-inkscape-font-specification:Nobile"
       id="flowRoot2985">
      <g
         id="g3017">
        <path
           id="path3013"
           style="font-size:144px;font-weight:500;font-family:OpenComicFont;-inkscape-font-specification:OpenComicFont Medium"
           d="m 46.1945,59.858899 c 2.20799,1.1e-4 4.415988,0.52811 6.624,1.584 2.207984,1.056108 3.407982,2.352106 3.6,3.888 0.09598,0.768104 0.335982,2.688102 0.72,5.76 0.479981,3.072096 1.15198,7.680091 2.016,13.824 0.959978,6.048079 1.775978,11.472074 2.448,16.272001 27.45595,-18.047914 43.00793,-26.639905 46.656,-25.776001 1.91993,0.480094 3.21593,1.920093 3.888,4.32 0.76793,2.304088 0.95993,4.704086 0.576,7.2 -0.38407,2.496081 -1.10407,4.320079 -2.16,5.472 -0.86407,0.960077 -8.06406,6.240071 -21.6,15.840001 -13.536037,9.60005 -21.168029,15.02405 -22.896,16.272 -2.8e-5,4e-5 0.239972,0.14404 0.72,0.432 3.935968,2.59204 7.919964,5.23204 11.952,7.92 4.031956,2.68803 9.88795,6.72003 17.568,12.096 7.77593,5.28002 14.11193,9.93601 19.008,13.968 4.99192,3.93601 7.58392,6.576 7.776,7.92 0.38392,2.016 -0.52808,3.696 -2.736,5.04 -2.20808,1.344 -4.65608,2.064 -7.344,2.16 -2.68807,0.096 -4.99207,-0.144 -6.912,-0.72 -2.20807,-0.864 -14.784053,-8.448 -37.728,-22.752 1.823968,13.92 2.879967,23.66399 3.168,29.232 0.09597,1.63199 -1.296032,2.25599 -4.176,1.872 -2.784026,-0.28801 -5.904023,-1.00801 -9.36,-2.16 -3.456016,-1.05601 -6.672013,-2.44801 -9.648,-4.176 -2.880007,-1.728 -4.368005,-3.12 -4.464,-4.176 -0.576005,-4.8 -1.680004,-23.71198 -3.312,-56.736 -1.632,-33.119912 -1.968,-50.063895 -1.008,-50.832001 -0.192001,1.06e-4 0.048,-0.287893 0.72,-0.864 0.671998,-0.671892 1.631997,-1.439891 2.88,-2.304 0.575995,-0.38389 1.583994,-0.57589 3.024,-0.576" />
        <path
           id="path3015"
           style="font-size:144px;font-weight:500;font-family:OpenComicFont;-inkscape-font-specification:OpenComicFont Medium"
           d="m 133.382,59.858899 c 2.20799,1.1e-4 4.41599,0.52811 6.624,1.584 2.20798,1.056108 3.40798,2.352106 3.6,3.888 0.096,0.768104 0.33598,2.688102 0.72,5.76 0.47998,3.072096 1.15198,7.680091 2.016,13.824 0.95998,6.048079 1.77598,11.472074 2.448,16.272001 27.45595,-18.047914 43.00793,-26.639905 46.656,-25.776001 1.91993,0.480094 3.21593,1.920093 3.888,4.32 0.76793,2.304088 0.95993,4.704086 0.576,7.2 -0.38407,2.496081 -1.10407,4.320079 -2.16,5.472 -0.86407,0.960077 -8.06406,6.240071 -21.6,15.840001 -13.53604,9.60005 -21.16803,15.02405 -22.896,16.272 -3e-5,4e-5 0.23997,0.14404 0.72,0.432 3.93597,2.59204 7.91996,5.23204 11.952,7.92 4.03196,2.68803 9.88795,6.72003 17.568,12.096 7.77593,5.28002 14.11193,9.93601 19.008,13.968 4.99192,3.93601 7.58392,6.576 7.776,7.92 0.38392,2.016 -0.52808,3.696 -2.736,5.04 -2.20808,1.344 -4.65608,2.064 -7.344,2.16 -2.68807,0.096 -4.99207,-0.144 -6.912,-0.72 -2.20807,-0.864 -14.78405,-8.448 -37.728,-22.752 1.82397,13.92 2.87997,23.66399 3.168,29.232 0.096,1.63199 -1.29603,2.25599 -4.176,1.872 -2.78403,-0.28801 -5.90402,-1.00801 -9.36,-2.16 -3.45602,-1.05601 -6.67201,-2.44801 -9.648,-4.176 -2.88001,-1.728 -4.36801,-3.12 -4.464,-4.176 -0.576,-4.8 -1.68,-23.71198 -3.312,-56.736 -1.632,-33.119912 -1.968,-50.063895 -1.008,-50.832001 -0.192,1.06e-4 0.048,-0.287893 0.72,-0.864 0.672,-0.671892 1.632,-1.439891 2.88,-2.304 0.57599,-0.38389 1.58399,-0.57589 3.024,-0.576" />
      </g>
    </g>
  </g>
</svg>
